REM MD5 22e91d34b8bd330d3c25345d251dbfc7
FILE "Quiz Nanairo Dreams - Nijiiro-chou no Kiseki (Japan).bin" BINARY
  TRACK 01 MODE2/2352
    INDEX 01 00:00:00
  TRACK 02 AUDIO
    INDEX 00 45:56:12
    INDEX 01 45:58:12
  TRACK 03 AUDIO
    INDEX 00 46:27:34
    INDEX 01 46:29:34
REM LEADOUT 46:44:58
